<svg id="Layer_1" xmlns="http://www.w3.org/2000/svg" viewBox="0 0 64 64"><style>.st0{fill:#ff5932}.st1{fill:url(#XMLID_5_);fill-opacity:.1}.st2{fill:#ef5233}.st3{fill:#ebb6a5}.st4{fill:#FFF}.st5{fill:url(#XMLID_6_)}.st6{fill:#373e4d}</style><path id="XMLID_1_" class="st0" d="M32 0c17.7 0 32 14.3 32 32S49.7 64 32 64 0 49.7 0 32 14.3 0 32 0z"/><linearGradient id="XMLID_5_" gradientUnits="userSpaceOnUse" x1="32" x2="32" y2="64" gradientTransform="matrix(1 0 0 -1 0 64)"><stop offset="0" stop-color="#FFF" stop-opacity=".75"/><stop offset="1" stop-color="#FFF"/></linearGradient><path id="XMLID_3_" class="st1" d="M32 0c17.7 0 32 14.3 32 32S49.7 64 32 64 0 49.7 0 32 14.3 0 32 0z"/><path id="XMLID_12_" class="st2" d="M64 32c0 17.7-14.3 32-32 32S0 49.7 0 32c0 0 4.4 29.9 32 29.9S64 32 64 32z"/><path class="st3" d="M21.5 35.1h-4v-12h4v12zm-4-22.4c0-.9.8-1.7 1.7-1.7h.7c.9 0 1.7.7 1.7 1.7V15h-4v-2.3h-.1zm4 30.4v12.3c0 .9-.8 1.7-1.7 1.7h-.7c-.9 0-1.7-.7-1.7-1.7V43.1h4.1z"/><path class="st4" d="M52 19.3c-1.5 3.4-3.9 9.7-3.9 9.7s2.5 6.2 3.9 9.7c1 2.4.2 2.3-1.4 2.3H16.9c-.8 0-1.4-.6-1.4-1.4v-1.2c0-.3.3-1.4 1.4-1.4H23.6V21h-6.8c-1.4 0-1.4-1-1.4-1.4v-1.2c0-.8.4-1.4 1.1-1.4h34.2c1.8.1 2.3 0 1.3 2.3z"/><linearGradient id="XMLID_6_" gradientUnits="userSpaceOnUse" x1="32" y1="3" x2="32" y2="61" gradientTransform="matrix(1 0 0 -1 0 64)"><stop offset="0" stop-color="#fed0cb"/><stop offset="1" stop-color="#FFF"/></linearGradient><path id="XMLID_7_" class="st5" d="M61 32c0 16-13 29-29 29S3 48 3 32 16 3 32 3s29 13 29 29zM32 5.1C17.1 5.1 5.1 17.1 5.1 32s12 26.9 26.9 26.9 26.9-12 26.9-26.9S46.9 5.1 32 5.1z"/><g><path class="st6" d="M28.7 37v-9.4h-3.8v-2.2c.5 0 1 0 1.5-.1s.9-.2 1.3-.5c.4-.2.7-.5 1-.9s.4-.8.5-1.4h2.4V37h-2.9zM35.9 26.1c.3-1 .7-1.7 1.2-2.3.5-.6 1.1-1 1.7-1.2.7-.2 1.4-.4 2.1-.4.8 0 1.5.1 2.1.4.7.2 1.2.7 1.8 1.2.5.6.9 1.4 1.2 2.3.3 1 .4 2.1.4 3.6s-.1 2.7-.4 3.6c-.3 1-.7 1.8-1.2 2.3-.5.6-1.1 1-1.8 1.2s-1.4.4-2.1.4c-.7 0-1.4-.1-2.1-.4s-1.2-.7-1.7-1.2c-.5-.6-.9-1.4-1.2-2.3-.3-1-.4-2.2-.4-3.6s.1-2.6.4-3.6zm2.7 5.1c0 .6.1 1.2.3 1.7s.4 1 .7 1.4.8.6 1.4.6c.6 0 1.1-.2 1.4-.6.3-.4.6-.9.7-1.4s.2-1.1.3-1.7v-1.5-.9c0-.4 0-.7-.1-1.1s-.1-.7-.2-1.1-.2-.7-.4-1-.4-.5-.7-.7-.6-.3-1-.3-.8.1-1 .3c-.3.2-.5.4-.7.7-.2.3-.3.6-.4 1s-.2.7-.2 1.1-.1.7-.1 1.1v.9c-.1.4-.1.9 0 1.5z"/></g></svg>