<svg id="Layer_1" xmlns="http://www.w3.org/2000/svg" viewBox="0 0 64 64"><style>.st0{fill:#e2af0b}.st1{fill:#c09509}.st2{fill:url(#XMLID_5_);fill-opacity:.1}.st3{fill:url(#XMLID_6_)}.st4{fill:gray}.st5{fill:#FFF}.st6{fill:#fd8724}</style><path id="XMLID_1_" class="st0" d="M32 0c17.7 0 32 14.3 32 32S49.7 64 32 64 0 49.7 0 32 14.3 0 32 0z"/><path id="XMLID_12_" class="st1" d="M64 32c0 17.7-14.3 32-32 32S0 49.7 0 32c0 0 4.4 29.9 32 29.9S64 32 64 32z"/><linearGradient id="XMLID_5_" gradientUnits="userSpaceOnUse" x1="32" x2="32" y2="64" gradientTransform="matrix(1 0 0 -1 0 64)"><stop offset="0" stop-color="#FFF" stop-opacity=".75"/><stop offset="1" stop-color="#FFF"/></linearGradient><path id="XMLID_3_" class="st2" d="M32 0c17.7 0 32 14.3 32 32S49.7 64 32 64 0 49.7 0 32 14.3 0 32 0z"/><linearGradient id="XMLID_6_" gradientUnits="userSpaceOnUse" x1="32" y1="3" x2="32" y2="61" gradientTransform="matrix(1 0 0 -1 0 64)"><stop offset="0" stop-color="#FFF" stop-opacity=".8"/><stop offset="1" stop-color="#FFF"/></linearGradient><path id="XMLID_7_" class="st3" d="M61 32c0 16-13 29-29 29S3 48 3 32 16 3 32 3s29 13 29 29zM32 5.1C17.1 5.1 5.1 17.1 5.1 32s12 26.9 26.9 26.9 26.9-12 26.9-26.9S46.9 5.1 32 5.1z"/><path class="st4" d="M31 22.1L19.8 33V21.6L31 10.7v11.4zm13.3 4.3L33.1 37.3v11.4l11.2-10.9V26.4zM19.8 48.7l11.4-11.4H19.8v11.4z"/><path class="st5" d="M33.1 24.1h11.2L33.1 35.5z"/><path class="st6" d="M31 35.5H19.8L31 24.1z"/></svg>