<svg id="Layer_1" xmlns="http://www.w3.org/2000/svg" viewBox="0 0 64 64"><style>.st0{fill:#e2af0b}.st1{fill:#c09509}.st2{fill:url(#XMLID_5_);fill-opacity:.1}.st3{fill:url(#XMLID_6_)}.st4{fill:#FFF}.st5{fill:gray}.st6{fill:#fd8724}</style><path id="XMLID_1_" class="st0" d="M32 0c17.7 0 32 14.3 32 32S49.7 64 32 64 0 49.7 0 32 14.3 0 32 0z"/><path id="XMLID_12_" class="st1" d="M64 32c0 17.7-14.3 32-32 32S0 49.7 0 32c0 0 4.4 29.9 32 29.9S64 32 64 32z"/><linearGradient id="XMLID_5_" gradientUnits="userSpaceOnUse" x1="32" y1="64" x2="32"><stop offset="0" stop-color="#FFF" stop-opacity=".75"/><stop offset="1" stop-color="#FFF"/></linearGradient><path id="XMLID_3_" class="st2" d="M32 0c17.7 0 32 14.3 32 32S49.7 64 32 64 0 49.7 0 32 14.3 0 32 0z"/><linearGradient id="XMLID_6_" gradientUnits="userSpaceOnUse" x1="32" y1="61" x2="32" y2="3"><stop offset="0" stop-color="#FFF" stop-opacity=".8"/><stop offset="1" stop-color="#FFF"/></linearGradient><path id="XMLID_7_" class="st3" d="M61 32c0 16-13 29-29 29S3 48 3 32 16 3 32 3s29 13 29 29zM32 5.1C17.1 5.1 5.1 17.1 5.1 32s12 26.9 26.9 26.9 26.9-12 26.9-26.9S46.9 5.1 32 5.1z"/><path class="st4" d="M45.7 15v29c0 .7-.6 1.4-1.4 1.4H19.8c-.7 0-1.4-.6-1.4-1.4V14.9c0-.7.6-1.4 1.4-1.4h24.5c.7.1 1.4.7 1.4 1.5zm-2.2 28.3V15.7H20.6v27.6h22.9z"/><path class="st4" d="M22.9 50.5c-.3 0-.6-.1-1-.4-.5-.5-.5-1.4 0-1.9l4-4.1c.5-.5 1.4-.5 1.9 0s.5 1.4 0 1.9l-4 4.1c-.2.3-.6.4-.9.4zM41.1 50.5c-.3 0-.6-.1-1-.4l-3.8-4c-.5-.5-.4-1.4 0-1.9.5-.5 1.4-.4 1.9 0l3.8 4c.5.5.4 1.4 0 1.9-.2.3-.6.4-.9.4z"/><g><path class="st5" d="M31.4 24.8l-7.2 7v-7.3l7.2-7v7.3zm8.5 2.8l-7.2 7v7.3l7.2-7v-7.3zM24.2 41.9l7.3-7.3h-7.3v7.3z"/><path class="st4" d="M32.7 26.1h7.2l-7.2 7.3z"/><path class="st6" d="M31.4 33.4h-7.2l7.2-7.3z"/></g></svg>