<svg id="Layer_1" xmlns="http://www.w3.org/2000/svg" viewBox="0 0 64 64"><style>.st0{fill:#fc3838}.st1{opacity:.14;fill:#231f20;enable-background:new}.st2{fill:url(#XMLID_3_)}.st3{fill:#FFF}</style><path id="XMLID_1_" class="st0" d="M60.9 32l3.1 9.9-8.5 6.3-3.7 9.6-10.8.4-9 5.8-9-5.8-10.8-.4-3.7-9.6L0 41.9 3.1 32 0 22.1l8.5-6.3 3.7-9.6L23 5.8 32 0l9 5.8 10.8.4 3.7 9.6 8.5 6.3z"/><path id="XMLID_8_" class="st1" d="M64 41.9l-8.5 6.3-3.7 9.6-10.8.4-9 5.8-9-5.8-10.8-.4-3.7-9.6L0 41.9l8.9 4.3 3.9 9.1 11.2.1 8 5.5 8.1-4.6 11.5-1.5 3.8-9.3z"/><linearGradient id="XMLID_3_" gradientUnits="userSpaceOnUse" x1="32" y1="3.791" x2="32" y2="60.209" gradientTransform="matrix(1 0 0 -1 0 64)"><stop offset="0" stop-color="#FFF" stop-opacity=".75"/><stop offset="1" stop-color="#FFF"/></linearGradient><path id="XMLID_15_" class="st2" d="M32 6.8l6.7 4.3.4.3h.5l8.1.3 2.8 7.2.2.5.4.3 6.4 4.8-2.3 7.3-.1.5.2.5 2.3 7.3-6.4 4.8-.5.3-.2.5-2.8 7.2-8.1.3h-.5l-.4.3-6.7 4.3-6.7-4.3-.4-.3h-.5l-8.1-.3-2.8-7.2-.2-.5-.4-.3-6.5-4.8 2.3-7.3.1-.5-.1-.5-2.3-7.3 6.4-4.8.4-.3.2-.5 2.8-7.2 8.1-.3h.5l.4-.3L32 6.8m0-3l-7.9 5.1-9.6.3-3.2 8.6-7.6 5.6L6.4 32l-2.7 8.7 7.6 5.6 3.2 8.6 9.6.3 7.9 5.1 7.9-5.1 9.6-.3 3.2-8.6 7.6-5.6-2.7-8.6 2.7-8.7-7.6-5.6-3.2-8.6-9.6-.2L32 3.8z"/><path class="st3" d="M42.5 19.2h-21L12 30.8l20 20 20-20-9.5-11.6zM38 25.5h-2.1c-1.5 0-1.9.7-1.9 2.1V30h4l-.4 4H34v11.9h-4.8V34H26v-3.9h3.2v-2.4c0-4 1.6-6.1 6.1-6.1 1 0 2.1.1 2.8.2v3.7z"/></svg>